<?xml version="1.0" encoding="utf-8"?>
<!DOCTYPE svg PUBLIC "-//W3C//DTD SVG 1.1//EN" "http://www.w3.org/Graphics/SVG/1.1/DTD/svg11.dtd">
<svg version="1.1" xmlns="http://www.w3.org/2000/svg" xmlns:xlink="http://www.w3.org/1999/xlink" x="0px" y="0px" viewBox="0 0 1000 1000" enable-background="new 0 0 1000 1000" xml:space="preserve">
<g><g transform="matrix(1 0 0 -1 0 480)"><path stroke="#0971B2" fill="#0971B2" d="M930.9,420.5c-33.1,31.8-69.3,47.7-108.7,47.7c-44.5,0-83.9-17.2-118.2-51.5L99.4-185.9c-3.8-3.8-6.4-8.9-7.6-15.3c-2.5-8.9-29.2-97.9-80.1-267c-3.8-12.7-1.3-23.5,7.6-32.4c6.4-5.1,14-7.6,22.9-7.6h9.5c132.2,44.5,219.9,73.1,263.2,85.8c3.8,1.3,7.6,3.8,11.4,7.6c375,370,577.2,570.2,606.4,600.7c38.1,39.4,57.2,79.5,57.2,120.1C988.7,346.8,969,384.9,930.9,420.5z M694.4,319.4c31.8-7.6,61.7-25.4,89.6-53.4c26.7-26.7,43.2-57.2,49.6-91.5C747.2,88.1,578.7-79.1,328.3-327c-12.7,30.5-29.9,56.6-51.5,78.2c-26.7,26.7-56.6,47-89.6,61L332.1-42.9l210.7,210.7L694.4,319.4z M145.2-239.3c31.8-7.6,61-25.4,87.7-53.4c21.6-21.6,36.9-47,45.8-76.3c-12.7-3.8-42.9-14-90.6-30.5c-47.7-16.5-82.3-28-103.9-34.3c6.4,19.1,16.8,52.1,31.5,99.2C130.3-287.6,140.1-255.8,145.2-239.3z M888.9,229.8l-5.7-5.7c-12.7,33.1-31.1,61.7-55.3,85.8C802.5,335.3,774.5,355,744,369l1.9,1.9l1.9,1.9c22.9,22.9,47.7,34.3,74.4,34.3c22.9,0,45.1-10.8,66.7-32.4c25.4-24.2,38.1-47.7,38.1-70.6S914.4,256.5,888.9,229.8z"/></g></g>
</svg>